# Blender 3.1.0
# www.blender.org
mtllib pyriamid_triangulatedMesh_exported.mtl
o Cone
v 0.000000 -1.000000 0.000000
v 0.000000 -1.000000 -1.000000
v 0.866025 -1.000000 0.500000
v -0.866025 -1.000000 0.500000
v 0.000000 1.000000 0.000000
vn -0.0000 -1.0000 -0.0000
vn 0.8402 0.2425 -0.4851
vn -0.0000 0.2425 0.9701
vn -0.8402 0.2425 -0.4851
vt 0.750000 0.250000
vt 0.750000 0.490000
vt 0.250000 0.490000
vt 0.957846 0.130000
vt 0.457846 0.130000
vt 0.542154 0.130000
vt 0.042154 0.130000
vt 0.250000 0.250000
s 0
f 1/1/1 2/2/1 3/4/1
f 2/3/2 5/8/2 3/5/2
f 1/1/1 3/4/1 4/6/1
f 3/5/3 5/8/3 4/7/3
f 1/1/1 4/6/1 2/2/1
f 4/7/4 5/8/4 2/3/4
